/* XPM */
static char * close_pressed_xpm[] = {
"17 18 127 2",
"  	c None",
". 	c #E5E5E6",
"+ 	c #E4E4E5",
"@ 	c #D7D7D9",
"# 	c #D0D1D1",
"$ 	c #C9CACB",
"% 	c #C4C5C6",
"& 	c #DEDEDE",
"* 	c #C8C9CA",
"= 	c #AFB9CB",
"- 	c #9CB0D1",
"; 	c #8EA8D4",
"> 	c #84A3D6",
", 	c #E4E4E4",
"' 	c #D8D8D8",
") 	c #BFC4CB",
"! 	c #98AFD3",
"~ 	c #83A3D9",
"{ 	c #81A2D9",
"] 	c #80A1D9",
"^ 	c #D8D8D9",
"/ 	c #E3E3E4",
"( 	c #DEDEDF",
"_ 	c #C1C5CC",
": 	c #8AA7D8",
"< 	c #82A3DA",
"[ 	c #7D9CD0",
"} 	c #65748C",
"| 	c #5A606C",
"1 	c #525456",
"2 	c #E2E2E2",
"3 	c #CCCDCF",
"4 	c #9AB0D5",
"5 	c #83A4DB",
"6 	c #7690BA",
"7 	c #575A5F",
"8 	c #A2A2A2",
"9 	c #C5C5C5",
"0 	c #D0D0D0",
"a 	c #B5C0D1",
"b 	c #85A5DB",
"c 	c #7F9ED2",
"d 	c #C1C1C1",
"e 	c #ADADAD",
"f 	c #A6A6A6",
"g 	c #D4D5D6",
"h 	c #A3B7D7",
"i 	c #85A5DD",
"j 	c #66748C",
"k 	c #A9A9A9",
"l 	c #BFBFBF",
"m 	c #505050",
"n 	c #B3B3B3",
"o 	c #D0D1D2",
"p 	c #95AFDA",
"q 	c #85A6DD",
"r 	c #585D67",
"s 	c #BEBEBE",
"t 	c #E5E5E5",
"u 	c #CECFD1",
"v 	c #8CABDD",
"w 	c #85A6DE",
"x 	c #515355",
"y 	c #C3C3C3",
"z 	c #C9C9C9",
"A 	c #E9E9E9",
"B 	c #D2D3D4",
"C 	c #97B1DC",
"D 	c #87A8DF",
"E 	c #565B64",
"F 	c #AFAFAF",
"G 	c #D2D2D2",
"H 	c #EDEDED",
"I 	c #D6D7D8",
"J 	c #A6BADA",
"K 	c #88A8E0",
"L 	c #5E6A7F",
"M 	c #878787",
"N 	c #CCCCCC",
"O 	c #EFEFEF",
"P 	c #D7D7D7",
"Q 	c #DADADB",
"R 	c #BCC7D8",
"S 	c #8BABE1",
"T 	c #7691BE",
"U 	c #54575B",
"V 	c #9F9F9F",
"W 	c #E7E7E7",
"X 	c #D9D9D9",
"Y 	c #DFDFDF",
"Z 	c #D4D5D7",
"` 	c #A2B8DD",
" .	c #88A8DE",
"..	c #697DA0",
"+.	c #A4A4A4",
"@.	c #AEAEAE",
"#.	c #CED2DA",
"$.	c #94B1E2",
"%.	c #84A4D8",
"&.	c #6F88B2",
"*.	c #5D697C",
"=.	c #515255",
"-.	c #CFD4DB",
";.	c #A4BBDF",
">.	c #8BAADF",
",.	c #7B98C9",
"'.	c #7590BF",
").	c #708BB8",
"!.	c #DDDDDD",
"~.	c #E0E0E0",
"{.	c #E1E1E1",
"].	c #D8D9DA",
"^.	c #C2CCDE",
"/.	c #ACC0E1",
"(.	c #9DB7E3",
"_.	c #92B1E4",
":.	c #D8D9DB",
"<.	c #E1E1E2",
"[.	c #E0E0E1",
"}.	c #DDDDDE",
"|.	c #DEDFDF",
"1.	c #DBDCDD",
"2.	c #DADBDC",
"3.	c #DCDCDC",
"4.	c #E3E3E3",
"5.	c #E6E6E6",
"6.	c #E8E8E8",
". . . . + @ # $ % $ # @ + . . . . ",
"+ + + & * = - ; > ; - = * & + + + ",
", , ' ) ! ~ { ] ] ] { ~ ! ) ^ + + ",
"/ ( _ : < [ } | 1 | } [ < : _ ( / ",
"2 3 4 5 6 7 8 9 0 9 8 7 6 5 4 3 2 ",
"@ a b c 7 9 d e f e d 9 7 c b a @ ",
"g h i j k l m n n n m l k j i h g ",
"o p q r l s t m s m t s l r q p o ",
"u v w x y z z A m A z z y x w v u ",
"B C D E F G G m H m G G F E D C B ",
"I J K L M N m O P O m N M L K J I ",
"Q R S T U V W G X G W V U T S R Q ",
"Y Z `  ...U M +.@.+.M U .. .` Z Y ",
"( & #.$.%.&.*.E =.E *.&.%.$.#.& ( ",
"& Y & -.;.>.,.'.).'.,.>.;.-.& Y & ",
"!.!.~.{.].^./.(._.(./.^.:.<.[.}.}.",
"!.!.!.Y t <.|.1.2.1.|.<.t Y !.!.!.",
"3.3.3.3.3.{.4.5.6.5.4.{.3.3.3.3.3."};
