/* XPM */
static char * hide_pressed_xpm[] = {
"17 18 124 2",
"  	c None",
". 	c #E5E5E6",
"+ 	c #E4E4E5",
"@ 	c #D7D7D9",
"# 	c #D0D1D1",
"$ 	c #C9CACB",
"% 	c #C4C5C6",
"& 	c #DEDEDE",
"* 	c #C8C9CA",
"= 	c #AFB9CB",
"- 	c #9CB0D1",
"; 	c #8EA8D4",
"> 	c #84A3D6",
", 	c #E4E4E4",
"' 	c #D8D8D8",
") 	c #BFC4CB",
"! 	c #98AFD3",
"~ 	c #83A3D9",
"{ 	c #81A2D9",
"] 	c #80A1D9",
"^ 	c #D8D8D9",
"/ 	c #E3E3E4",
"( 	c #DEDEDF",
"_ 	c #C1C5CC",
": 	c #8AA7D8",
"< 	c #82A3DA",
"[ 	c #7D9CD0",
"} 	c #65748C",
"| 	c #5A606C",
"1 	c #525456",
"2 	c #E2E2E2",
"3 	c #CCCDCF",
"4 	c #9AB0D5",
"5 	c #83A4DB",
"6 	c #7690BA",
"7 	c #575A5F",
"8 	c #A2A2A2",
"9 	c #C5C5C5",
"0 	c #D0D0D0",
"a 	c #B5C0D1",
"b 	c #85A5DB",
"c 	c #7F9ED2",
"d 	c #C1C1C1",
"e 	c #ADADAD",
"f 	c #A6A6A6",
"g 	c #D4D5D6",
"h 	c #A3B7D7",
"i 	c #85A5DD",
"j 	c #66748C",
"k 	c #A9A9A9",
"l 	c #BFBFBF",
"m 	c #B3B3B3",
"n 	c #D0D1D2",
"o 	c #95AFDA",
"p 	c #85A6DD",
"q 	c #585D67",
"r 	c #BEBEBE",
"s 	c #CECFD1",
"t 	c #8CABDD",
"u 	c #85A6DE",
"v 	c #515355",
"w 	c #C3C3C3",
"x 	c #C9C9C9",
"y 	c #D2D3D4",
"z 	c #97B1DC",
"A 	c #87A8DF",
"B 	c #565B64",
"C 	c #AFAFAF",
"D 	c #D2D2D2",
"E 	c #D6D7D8",
"F 	c #A6BADA",
"G 	c #88A8E0",
"H 	c #5E6A7F",
"I 	c #878787",
"J 	c #CCCCCC",
"K 	c #505050",
"L 	c #DADADB",
"M 	c #BCC7D8",
"N 	c #8BABE1",
"O 	c #7691BE",
"P 	c #54575B",
"Q 	c #9F9F9F",
"R 	c #E7E7E7",
"S 	c #EDEDED",
"T 	c #EFEFEF",
"U 	c #DFDFDF",
"V 	c #D4D5D7",
"W 	c #A2B8DD",
"X 	c #88A8DE",
"Y 	c #697DA0",
"Z 	c #A4A4A4",
"` 	c #AEAEAE",
" .	c #CED2DA",
"..	c #94B1E2",
"+.	c #84A4D8",
"@.	c #6F88B2",
"#.	c #5D697C",
"$.	c #515255",
"%.	c #CFD4DB",
"&.	c #A4BBDF",
"*.	c #8BAADF",
"=.	c #7B98C9",
"-.	c #7590BF",
";.	c #708BB8",
">.	c #DDDDDD",
",.	c #E0E0E0",
"'.	c #E1E1E1",
").	c #D8D9DA",
"!.	c #C2CCDE",
"~.	c #ACC0E1",
"{.	c #9DB7E3",
"].	c #92B1E4",
"^.	c #D8D9DB",
"/.	c #E1E1E2",
"(.	c #E0E0E1",
"_.	c #DDDDDE",
":.	c #E5E5E5",
"<.	c #DEDFDF",
"[.	c #DBDCDD",
"}.	c #DADBDC",
"|.	c #DCDCDC",
"1.	c #E3E3E3",
"2.	c #E6E6E6",
"3.	c #E8E8E8",
". . . . + @ # $ % $ # @ + . . . . ",
"+ + + & * = - ; > ; - = * & + + + ",
", , ' ) ! ~ { ] ] ] { ~ ! ) ^ + + ",
"/ ( _ : < [ } | 1 | } [ < : _ ( / ",
"2 3 4 5 6 7 8 9 0 9 8 7 6 5 4 3 2 ",
"@ a b c 7 9 d e f e d 9 7 c b a @ ",
"g h i j k l m m m m m l k j i h g ",
"n o p q l r r r r r r r l q p o n ",
"s t u v w x x x x x x x w v u t s ",
"y z A B C D D D D D D D C B A z y ",
"E F G H I J K K K K K J I H G F E ",
"L M N O P Q R S T S R Q P O N M L ",
"U V W X Y P I Z ` Z I P Y X W V U ",
"( &  ...+.@.#.B $.B #.@.+... .& ( ",
"& U & %.&.*.=.-.;.-.=.*.&.%.& U & ",
">.>.,.'.).!.~.{.].{.~.!.^./.(._._.",
">.>.>.U :./.<.[.}.[.<./.:.U >.>.>.",
"|.|.|.|.|.'.1.2.3.2.1.'.|.|.|.|.|."};
