/* XPM */
static char * maximize_toggled_prelight_xpm[] = {
"17 18 119 2",
"  	c None",
". 	c #E5E5E6",
"+ 	c #E4E4E5",
"@ 	c #D7D7D9",
"# 	c #D0D1D1",
"$ 	c #C9CACB",
"% 	c #C4C5C6",
"& 	c #DEDEDE",
"* 	c #C8C9CA",
"= 	c #AFB9CB",
"- 	c #9CB0D1",
"; 	c #8EA8D4",
"> 	c #84A3D6",
", 	c #E4E4E4",
"' 	c #D8D8D8",
") 	c #BFC4CB",
"! 	c #98AFD3",
"~ 	c #83A3D9",
"{ 	c #81A2D9",
"] 	c #80A1D9",
"^ 	c #D8D8D9",
"/ 	c #E3E3E4",
"( 	c #DEDEDF",
"_ 	c #C1C5CC",
": 	c #8AA7D8",
"< 	c #82A3DA",
"[ 	c #7D9CD0",
"} 	c #65748C",
"| 	c #5A606C",
"1 	c #525456",
"2 	c #E2E2E2",
"3 	c #CCCDCF",
"4 	c #9AB0D5",
"5 	c #83A4DB",
"6 	c #7690BA",
"7 	c #585B60",
"8 	c #B5B5B5",
"9 	c #F2F2F2",
"0 	c #B5C0D1",
"a 	c #85A5DB",
"b 	c #7F9ED2",
"c 	c #DCDCDC",
"d 	c #EEEEEE",
"e 	c #E9E9E9",
"f 	c #E7E7E7",
"g 	c #D4D5D6",
"h 	c #A3B7D7",
"i 	c #85A5DD",
"j 	c #66748C",
"k 	c #B4B4B4",
"l 	c #505050",
"m 	c #E5E5E5",
"n 	c #D0D1D2",
"o 	c #95AFDA",
"p 	c #85A6DD",
"q 	c #585D67",
"r 	c #D3D3D3",
"s 	c #F4F4F4",
"t 	c #CECFD1",
"u 	c #8CABDD",
"v 	c #85A6DE",
"w 	c #515355",
"x 	c #E3E3E3",
"y 	c #F3F3F3",
"z 	c #D2D3D4",
"A 	c #97B1DC",
"B 	c #87A8DF",
"C 	c #565B64",
"D 	c #B8B8B8",
"E 	c #D6D7D8",
"F 	c #A6BADA",
"G 	c #88A8E0",
"H 	c #5E6A7F",
"I 	c #878787",
"J 	c #D5D5D5",
"K 	c #E0E0E0",
"L 	c #DADADB",
"M 	c #BCC7D8",
"N 	c #8BABE1",
"O 	c #7691BE",
"P 	c #54575B",
"Q 	c #A0A0A0",
"R 	c #C7C7C7",
"S 	c #DDDDDD",
"T 	c #DFDFDF",
"U 	c #D4D5D7",
"V 	c #A2B8DD",
"W 	c #88A8DE",
"X 	c #697DA0",
"Y 	c #858585",
"Z 	c #A3A3A3",
"` 	c #AEAEAE",
" .	c #CED2DA",
"..	c #94B1E2",
"+.	c #84A4D8",
"@.	c #6F88B2",
"#.	c #5D697C",
"$.	c #515255",
"%.	c #CFD4DB",
"&.	c #A4BBDF",
"*.	c #8BAADF",
"=.	c #7B98C9",
"-.	c #7590BF",
";.	c #708BB8",
">.	c #E1E1E1",
",.	c #D8D9DA",
"'.	c #C2CCDE",
").	c #ACC0E1",
"!.	c #9DB7E3",
"~.	c #92B1E4",
"{.	c #D8D9DB",
"].	c #E1E1E2",
"^.	c #E0E0E1",
"/.	c #DDDDDE",
"(.	c #DEDFDF",
"_.	c #DBDCDD",
":.	c #DADBDC",
"<.	c #E6E6E6",
"[.	c #E8E8E8",
". . . . + @ # $ % $ # @ + . . . . ",
"+ + + & * = - ; > ; - = * & + + + ",
", , ' ) ! ~ { ] ] ] { ~ ! ) ^ + + ",
"/ ( _ : < [ } | 1 | } [ < : _ ( / ",
"2 3 4 5 6 7 8 , 9 , 8 7 6 5 4 3 2 ",
"@ 0 a b 7 c d e f e d c 7 b a 0 @ ",
"g h i j k e l l m l l e k j i h g ",
"n o p q r , l s , s l , r q p o n ",
"t u v w ' x y x x x y x ' w v u t ",
"z A B C D 2 l 2 2 2 l 2 D C B A z ",
"E F G H I J l l K l l J I H G F E ",
"L M N O P Q R d S d R Q P O N M L ",
"T U V W X P Y Z ` Z Y P X W V U T ",
"( &  ...+.@.#.C $.C #.@.+... .& ( ",
"& T & %.&.*.=.-.;.-.=.*.&.%.& T & ",
"S S K >.,.'.).!.~.!.).'.{.].^././.",
"S S S T m ].(._.:._.(.].m T S S S ",
"c c c c c >.x <.[.<.x >.c c c c c "};
