/* XPM */
static char * shade_toggled_prelight_xpm[] = {
"17 18 120 2",
"  	c None",
". 	c #E5E5E6",
"+ 	c #E4E4E5",
"@ 	c #D7D7D9",
"# 	c #D0D1D1",
"$ 	c #C9CACB",
"% 	c #C4C5C6",
"& 	c #DEDEDE",
"* 	c #C8C9CA",
"= 	c #AFB9CB",
"- 	c #9CB0D1",
"; 	c #8EA8D4",
"> 	c #84A3D6",
", 	c #E4E4E4",
"' 	c #D8D8D8",
") 	c #BFC4CB",
"! 	c #98AFD3",
"~ 	c #83A3D9",
"{ 	c #81A2D9",
"] 	c #80A1D9",
"^ 	c #D8D8D9",
"/ 	c #E3E3E4",
"( 	c #DEDEDF",
"_ 	c #C1C5CC",
": 	c #8AA7D8",
"< 	c #82A3DA",
"[ 	c #7D9CD0",
"} 	c #65748C",
"| 	c #5A606C",
"1 	c #525456",
"2 	c #E2E2E2",
"3 	c #CCCDCF",
"4 	c #9AB0D5",
"5 	c #83A4DB",
"6 	c #7690BA",
"7 	c #585B60",
"8 	c #B5B5B5",
"9 	c #F2F2F2",
"0 	c #B5C0D1",
"a 	c #85A5DB",
"b 	c #7F9ED2",
"c 	c #DCDCDC",
"d 	c #EEEEEE",
"e 	c #E9E9E9",
"f 	c #E7E7E7",
"g 	c #D4D5D6",
"h 	c #A3B7D7",
"i 	c #85A5DD",
"j 	c #66748C",
"k 	c #B4B4B4",
"l 	c #E5E5E5",
"m 	c #D0D1D2",
"n 	c #95AFDA",
"o 	c #85A6DD",
"p 	c #585D67",
"q 	c #D3D3D3",
"r 	c #CECFD1",
"s 	c #8CABDD",
"t 	c #85A6DE",
"u 	c #515355",
"v 	c #E3E3E3",
"w 	c #505050",
"x 	c #D2D3D4",
"y 	c #97B1DC",
"z 	c #87A8DF",
"A 	c #565B64",
"B 	c #B8B8B8",
"C 	c #F3F3F3",
"D 	c #D6D7D8",
"E 	c #A6BADA",
"F 	c #88A8E0",
"G 	c #5E6A7F",
"H 	c #878787",
"I 	c #D5D5D5",
"J 	c #E0E0E0",
"K 	c #DADADB",
"L 	c #BCC7D8",
"M 	c #8BABE1",
"N 	c #7691BE",
"O 	c #54575B",
"P 	c #A0A0A0",
"Q 	c #C7C7C7",
"R 	c #D6D6D6",
"S 	c #F1F1F1",
"T 	c #DFDFDF",
"U 	c #D4D5D7",
"V 	c #A2B8DD",
"W 	c #88A8DE",
"X 	c #697DA0",
"Y 	c #858585",
"Z 	c #A3A3A3",
"` 	c #AEAEAE",
" .	c #CED2DA",
"..	c #94B1E2",
"+.	c #84A4D8",
"@.	c #6F88B2",
"#.	c #5D697C",
"$.	c #515255",
"%.	c #CFD4DB",
"&.	c #A4BBDF",
"*.	c #8BAADF",
"=.	c #7B98C9",
"-.	c #7590BF",
";.	c #708BB8",
">.	c #DDDDDD",
",.	c #E1E1E1",
"'.	c #D8D9DA",
").	c #C2CCDE",
"!.	c #ACC0E1",
"~.	c #9DB7E3",
"{.	c #92B1E4",
"].	c #D8D9DB",
"^.	c #E1E1E2",
"/.	c #E0E0E1",
"(.	c #DDDDDE",
"_.	c #DEDFDF",
":.	c #DBDCDD",
"<.	c #DADBDC",
"[.	c #E6E6E6",
"}.	c #E8E8E8",
". . . . + @ # $ % $ # @ + . . . . ",
"+ + + & * = - ; > ; - = * & + + + ",
", , ' ) ! ~ { ] ] ] { ~ ! ) ^ + + ",
"/ ( _ : < [ } | 1 | } [ < : _ ( / ",
"2 3 4 5 6 7 8 , 9 , 8 7 6 5 4 3 2 ",
"@ 0 a b 7 c d e f e d c 7 b a 0 @ ",
"g h i j k e l l l l l e k j i h g ",
"m n o p q , , , , , , , q p o n m ",
"r s t u ' v w v v v w v ' u t s r ",
"x y z A B 2 C w 2 w C 2 B A z y x ",
"D E F G H I J 9 w 9 J I H G F E D ",
"K L M N O P Q R S R Q P O N M L K ",
"T U V W X O Y Z ` Z Y O X W V U T ",
"( &  ...+.@.#.A $.A #.@.+... .& ( ",
"& T & %.&.*.=.-.;.-.=.*.&.%.& T & ",
">.>.J ,.'.).!.~.{.~.!.).].^./.(.(.",
">.>.>.T l ^._.:.<.:._.^.l T >.>.>.",
"c c c c c ,.v [.}.[.v ,.c c c c c "};
