/* XPM */
static char * stick_inactive_xpm[] = {
"17 18 73 1",
" 	c None",
".	c #E5E5E6",
"+	c #E4E4E5",
"@	c #D8D8D9",
"#	c #D1D1D1",
"$	c #CBCBCB",
"%	c #C6C6C6",
"&	c #DEDEDE",
"*	c #CACACA",
"=	c #C5C5C5",
"-	c #E4E4E4",
";	c #D8D8D8",
">	c #C8C8C8",
",	c #C7C7C7",
"'	c #E3E3E4",
")	c #DEDEDF",
"!	c #C9C9C9",
"~	c #BFBFBF",
"{	c #848484",
"]	c #686868",
"^	c #555555",
"/	c #E2E2E2",
"(	c #CECECE",
"_	c #ADADAD",
":	c #5F5F5F",
"<	c #B5B5B5",
"[	c #F2F2F2",
"}	c #C2C2C2",
"|	c #5E5E5E",
"1	c #DCDCDC",
"2	c #EEEEEE",
"3	c #E9E9E9",
"4	c #E7E7E7",
"5	c #D6D6D6",
"6	c #CDCDCD",
"7	c #858585",
"8	c #B4B4B4",
"9	c #E5E5E5",
"0	c #D2D2D2",
"a	c #656565",
"b	c #D3D3D3",
"c	c #D0D0D0",
"d	c #CFCFCF",
"e	c #545454",
"f	c #E3E3E3",
"g	c #D4D4D4",
"h	c #626262",
"i	c #B8B8B8",
"j	c #7A7A7A",
"k	c #878787",
"l	c #D5D5D5",
"m	c #E0E0E0",
"n	c #DBDBDB",
"o	c #5A5A5A",
"p	c #A0A0A0",
"q	c #DDDDDD",
"r	c #DFDFDF",
"s	c #D7D7D7",
"t	c #999999",
"u	c #A3A3A3",
"v	c #AEAEAE",
"w	c #D7D7D8",
"x	c #A9A9A9",
"y	c #787878",
"z	c #D9D9D9",
"A	c #E1E1E1",
"B	c #DADADA",
"C	c #DBDBDC",
"D	c #E1E1E2",
"E	c #E0E0E1",
"F	c #DDDDDE",
"G	c #E6E6E6",
"H	c #E8E8E8",
"....+@#$%$#@+....",
"+++&*=======*&+++",
"--;>,,,,,,,,,>@++",
"')!>>~{]^]{~>>!)'",
"/(**_:<-[-<:_**(/",
"@$$}|1234321|}$$@",
"56678399999387665",
"0((ab-------ba((0",
"cdde;fffffff;eddc",
"g##hi///////ih##g",
";00jklmmmmmlkj00;",
"ngg8op,5q5,po8ggn",
"rsl0to7uvu7ot0lsr",
")&ws6xyhehyx6sw&)",
"&r&z;l~<v<~l;z&r&",
"qqmAnBBBBBBBCDEFF",
"qqqr9/rq1qr/9rqqq",
"11111AfGHGfA11111"};
