/* XPM */
static char * title_new_xpm[] = {
"1 22 18 1",
" 	c None",
".	c #FFFFFF",
"+	c #E7E7E8",
"@	c #E6E7E7",
"#	c #E5E5E6",
"$	c #E5E5E5",
"%	c #E3E4E5",
"&	c #E3E3E3",
"*	c #E2E2E3",
"=	c #E1E1E2",
"-	c #E0E1E1",
";	c #DFDFE0",
">	c #DFDFDF",
",	c #DEDEDE",
"'	c #DDDDDD",
")	c #DCDCDC",
"!	c #DBDBDB",
"~	c #C7C7C9",
".",
"+",
"+",
"+",
"+",
"+",
"+",
"@",
"#",
"$",
"%",
"&",
"*",
"=",
"-",
";",
">",
",",
"'",
")",
"!",
"~"};
