/* XPM */
static char * stick_focus_xpm[] = {
"28 28 6 1",
" 	c None",
".	c #E7E8EB",
"+	c #70788D",
"@	c #E5E6E9",
"#	c #E6E7EA",
"$	c #72798E",
"............................",
"............................",
"............................",
"............................",
"............................",
"............................",
"............................",
"............................",
"............................",
"............................",
"............................",
"...........++@.++...........",
"...........++#.$+...........",
"...........@@@..............",
"..............#.#...........",
"...........++..++...........",
"...........++.@++...........",
"............................",
"............................",
"............................",
"............................",
"............................",
"............................",
"............................",
"............................",
"............................",
"............................",
"...........................#"};
