/* XPM */
static char * stuck_focus_xpm[] = {
"28 28 5 1",
" 	c None",
".	c #E7E8EB",
"+	c #5294E2",
"@	c #E5E6E9",
"#	c #E6E7EA",
"............................",
"............................",
"............................",
"............................",
"............................",
"............................",
"............................",
"............................",
"............................",
"............................",
"............................",
"...........++@.++...........",
"...........++#.++...........",
"...........@@@..............",
"..............#.#...........",
"...........++..++...........",
"...........++.@++...........",
"............................",
"............................",
"............................",
"............................",
"............................",
"............................",
"............................",
"............................",
"............................",
"............................",
"...........................#"};
